<?xml version="1.0" standalone="no"?>
<!DOCTYPE svg PUBLIC "-//W3C//DTD SVG 20010904//EN"
 "http://www.w3.org/TR/2001/REC-SVG-20010904/DTD/svg10.dtd">
<svg version="1.0" xmlns="http://www.w3.org/2000/svg"
 width="539.000000pt" height="539.000000pt" viewBox="0 0 539.000000 539.000000"
 preserveAspectRatio="xMidYMid meet">
<metadata>
Created by potrace 1.11, written by Peter Selinger 2001-2013
</metadata>
<g transform="translate(0.000000,539.000000) scale(0.100000,-0.100000)"
fill="#000000" stroke="none">
<path d="M3069 5181 c-3 -26 -4 -30 -11 -37 -5 -4 -8 1 -9 12 0 10 -3 13 -6 7
-2 -7 -9 -13 -14 -13 -6 0 -7 5 -3 12 4 7 3 8 -4 4 -16 -10 -15 -39 1 -30 10
6 10 4 0 -7 -18 -18 -16 -29 5 -29 14 0 15 -2 2 -9 -8 -6 -17 -8 -21 -5 -4 2
-5 -5 -2 -16 3 -11 0 -20 -6 -20 -6 0 -11 -5 -11 -11 0 -5 4 -8 9 -5 5 3 8
-17 7 -44 -2 -36 2 -50 11 -50 7 0 13 -5 13 -11 0 -5 -4 -8 -8 -5 -5 3 -9 -1
-9 -9 0 -8 5 -11 11 -8 6 4 4 -2 -4 -13 -24 -30 -40 -46 -40 -38 0 3 -7 1 -15
-6 -8 -7 -15 -9 -15 -5 0 4 -6 2 -14 -4 -11 -9 -16 -9 -21 0 -5 7 -10 8 -14 1
-8 -13 -72 -19 -89 -8 -7 4 -15 1 -18 -8 -3 -9 -11 -16 -16 -16 -6 0 -8 7 -5
15 4 8 2 17 -4 20 -5 4 -8 1 -7 -6 2 -6 -3 -14 -9 -16 -7 -3 -13 3 -13 12 0
15 -1 15 -16 1 -17 -18 -28 -21 -19 -6 3 6 1 10 -4 10 -6 0 -11 5 -11 11 0 5
4 7 10 4 6 -3 7 1 4 9 -3 9 -17 16 -30 16 -13 0 -24 5 -24 11 0 5 5 7 11 3 8
-5 8 -1 0 14 -8 15 -21 20 -56 20 -25 1 -50 4 -55 7 -5 3 -11 1 -15 -5 -4 -6
-11 -8 -16 -5 -5 4 -10 1 -10 -4 -1 -6 -3 -15 -4 -21 -1 -5 -3 -14 -4 -18 -2
-15 -43 -57 -52 -55 -4 2 -6 -4 -3 -12 4 -8 -1 -17 -10 -21 -9 -3 -13 -10 -10
-15 3 -5 -1 -6 -9 -3 -8 3 -18 1 -21 -5 -7 -11 -66 5 -66 19 0 4 -11 5 -25 2
-14 -2 -25 -8 -25 -13 0 -4 -12 -9 -27 -11 -21 -2 -28 -8 -27 -25 0 -12 -3
-20 -7 -18 -4 3 -10 -3 -13 -12 -4 -10 -4 -14 0 -10 9 9 45 -33 38 -44 -3 -5
0 -9 6 -9 6 0 8 -4 5 -10 -3 -5 -1 -10 6 -10 8 0 9 -4 0 -13 -8 -10 -7 -17 1
-25 13 -13 18 -63 6 -56 -4 3 -8 -2 -8 -11 0 -10 -5 -13 -12 -9 -9 5 -9 2 1
-9 9 -12 10 -17 2 -17 -7 0 -9 -5 -5 -12 5 -8 2 -9 -9 -5 -10 3 -17 3 -17 -2
0 -5 -11 -11 -25 -13 -13 -3 -23 -1 -22 5 1 5 -7 11 -17 13 -10 1 -22 8 -26
14 -4 6 -11 10 -16 9 -21 -4 -35 2 -29 11 3 6 3 10 -2 11 -4 0 -16 2 -25 4
-10 2 -18 -1 -18 -6 0 -6 -4 -8 -9 -4 -6 3 -15 -5 -22 -17 -7 -13 -15 -25 -18
-28 -12 -10 -41 -81 -30 -74 8 5 8 1 0 -13 -6 -11 -7 -23 -4 -27 3 -3 1 -6 -5
-6 -7 0 -11 -3 -10 -7 1 -5 -3 -19 -10 -33 -12 -23 -12 -24 2 -6 9 11 16 16
16 12 0 -14 -23 -51 -37 -59 -7 -5 -11 -13 -7 -18 3 -5 0 -16 -6 -24 -6 -8 -9
-19 -6 -24 4 -5 2 -12 -3 -16 -6 -3 -8 -12 -5 -19 3 -7 -1 -16 -8 -19 -9 -3
-13 -20 -12 -46 1 -33 -2 -41 -14 -36 -12 4 -13 3 -2 -10 9 -11 9 -15 1 -15
-12 0 -38 -57 -33 -72 1 -5 -2 -8 -8 -8 -5 0 -14 -10 -21 -21 -9 -17 -8 -20 3
-14 7 4 3 -2 -9 -13 -12 -12 -24 -30 -28 -42 -3 -11 -11 -20 -17 -20 -5 0 -8
-7 -4 -15 3 -9 -3 -24 -14 -35 -11 -11 -20 -21 -19 -22 0 -2 -5 -16 -11 -33
-16 -45 -17 -49 -18 -59 0 -5 -5 -12 -11 -16 -7 -3 -13 -20 -14 -37 -1 -17 -6
-31 -12 -30 -5 1 -9 -3 -8 -10 2 -6 -5 -29 -14 -50 -9 -21 -18 -41 -19 -45 -1
-5 -2 -9 -4 -10 -1 -2 -3 -12 -5 -22 -2 -10 -10 -23 -17 -27 -7 -5 -9 -9 -5
-9 5 0 0 -16 -12 -35 -13 -23 -16 -35 -8 -35 9 0 9 -2 -1 -8 -7 -5 -14 -25
-16 -46 -2 -20 -7 -40 -11 -44 -5 -4 -5 0 -1 8 4 8 0 6 -8 -4 -12 -15 -13 -23
-4 -33 9 -11 8 -13 -3 -11 -9 2 -13 -4 -11 -15 2 -10 -5 -26 -16 -35 -11 -10
-18 -29 -18 -44 1 -16 -3 -28 -8 -28 -5 0 -1 -9 9 -20 17 -19 18 -22 2 -35 -9
-8 -13 -10 -8 -4 11 13 4 39 -11 39 -5 0 -6 -4 -3 -10 3 -5 2 -10 -3 -10 -5 0
-9 -8 -9 -17 0 -29 -15 -63 -24 -57 -5 3 -6 -2 -3 -11 4 -8 0 -23 -7 -32 -12
-14 -12 -16 1 -8 9 5 7 -1 -5 -15 -16 -19 -17 -22 -4 -17 13 4 16 1 12 -14 -3
-10 -10 -19 -15 -19 -5 0 -6 5 -2 12 4 7 3 8 -4 4 -12 -7 -5 -36 9 -36 5 0 8
-6 7 -12 -2 -7 3 -12 10 -10 10 2 10 -2 1 -20 -16 -31 -16 -31 -23 -13 -3 9
-2 13 4 10 11 -7 14 8 3 18 -9 10 -34 -14 -26 -26 3 -5 2 -7 -4 -4 -6 4 -21
-5 -33 -18 -25 -26 -37 -65 -21 -65 6 0 8 9 6 21 -3 17 -1 19 9 9 11 -8 15 -8
19 2 2 7 7 10 11 7 4 -4 -3 -17 -16 -29 l-23 -22 25 6 c14 3 19 3 12 0 -6 -3
-10 -9 -8 -13 3 -4 -4 -7 -14 -7 -10 0 -17 3 -14 7 2 4 -11 10 -29 14 -17 4
-34 9 -37 10 -29 11 -39 18 -35 24 2 4 -2 8 -9 8 -23 0 -86 33 -86 45 0 6 -3
9 -6 6 -3 -4 -19 8 -35 24 -16 17 -29 28 -29 24 0 -4 -11 5 -25 20 -14 15 -25
24 -25 21 0 -3 -23 5 -50 19 -30 15 -48 30 -44 36 4 7 2 8 -4 4 -6 -3 -19 2
-29 12 -10 11 -34 22 -53 25 -19 3 -42 7 -50 9 -30 7 -13 -65 27 -112 9 -10
21 -17 27 -14 6 3 3 -1 -7 -9 -15 -13 -15 -16 -2 -27 8 -7 15 -9 15 -4 0 5 5
2 10 -6 8 -13 10 -13 10 0 0 10 5 7 16 -8 8 -12 22 -22 30 -22 8 0 13 -4 10
-8 -2 -4 5 -9 16 -9 12 -1 25 -8 29 -15 5 -7 9 -9 9 -4 0 5 6 3 13 -3 8 -6 17
-8 20 -4 4 3 7 -1 7 -10 0 -10 7 -17 16 -17 9 0 12 -5 8 -12 -5 -8 -2 -9 11
-5 11 5 23 1 32 -10 8 -10 11 -11 7 -3 -7 12 -5 13 8 3 8 -7 18 -10 21 -6 4 3
7 -1 7 -10 0 -10 5 -14 15 -11 8 4 15 1 15 -6 0 -6 5 -8 10 -5 6 4 10 3 9 -2
-3 -18 2 -33 10 -31 5 2 27 -16 50 -40 22 -23 44 -41 48 -40 4 2 8 -1 8 -7 0
-5 -3 -9 -7 -7 -5 1 -8 -2 -8 -8 0 -5 5 -10 11 -10 8 0 8 -4 -1 -15 -6 -8 -9
-19 -5 -25 3 -5 1 -10 -4 -10 -6 0 -11 -7 -11 -16 0 -8 -4 -13 -9 -9 -6 3 -8
-4 -6 -15 2 -11 0 -20 -5 -20 -5 0 -7 -6 -4 -14 3 -9 -3 -13 -18 -13 -41 -1
-48 -3 -48 -14 0 -8 4 -8 13 0 10 8 14 7 14 -4 0 -8 -4 -12 -8 -9 -13 8 -51
-36 -45 -51 3 -8 1 -17 -4 -20 -6 -4 -5 -14 2 -25 10 -15 15 -17 27 -7 11 9
13 9 8 0 -4 -6 -4 -13 0 -16 5 -2 3 -2 -4 -1 -7 2 -15 -1 -18 -6 -4 -6 0 -10
7 -10 8 0 6 -5 -5 -11 -22 -13 -34 -5 -19 13 7 9 6 17 -3 25 -10 10 -14 9 -19
-3 -3 -9 -1 -12 4 -9 13 8 13 -5 0 -25 -9 -13 -10 -13 -10 0 0 13 -1 13 -10 0
-5 -8 -5 -19 -1 -25 6 -9 7 -17 2 -42 -1 -5 -6 -1 -12 7 -9 13 -10 12 -5 -2 7
-24 -3 -50 -17 -41 -6 3 -7 1 -3 -5 4 -7 4 -18 -1 -25 -4 -6 -8 -16 -8 -22 -1
-5 -6 -9 -13 -8 -7 2 -12 -2 -12 -7 0 -12 10 -13 29 -1 7 5 11 14 7 20 -5 7
-1 9 9 5 11 -5 13 -10 5 -19 -5 -6 -7 -15 -3 -18 3 -4 1 -13 -5 -20 -7 -8 -9
-17 -5 -20 3 -4 1 -7 -5 -7 -7 0 -12 -5 -12 -11 0 -5 5 -7 12 -3 7 5 8 3 4 -5
-5 -7 -11 -9 -15 -6 -8 9 -9 55 0 49 9 -5 23 15 16 23 -12 11 -44 -23 -40 -42
8 -40 5 -67 -7 -78 -10 -10 -12 -8 -6 8 6 20 6 20 -9 1 -8 -11 -11 -24 -6 -30
10 -14 10 -47 0 -40 -4 2 -15 -6 -23 -18 -12 -17 -13 -25 -3 -37 8 -10 8 -13
0 -8 -7 4 -18 -11 -29 -44 -11 -28 -24 -54 -31 -56 -7 -3 -11 -8 -8 -12 8 -13
-25 -92 -50 -119 -14 -15 -26 -32 -26 -39 -2 -21 -4 -27 -20 -58 -9 -16 -15
-43 -15 -60 1 -16 -7 -39 -16 -49 -28 -31 -21 -42 10 -15 l27 24 -24 -28 c-24
-27 -21 -32 19 -28 13 2 13 1 0 -8 -13 -9 -12 -11 5 -12 11 0 15 -3 8 -5 -6
-3 -23 2 -38 12 -24 16 -27 16 -45 -1 -11 -10 -17 -23 -12 -29 4 -6 7 -23 6
-39 0 -15 5 -32 12 -38 17 -14 19 -33 2 -23 -7 4 -8 3 -4 -4 4 -7 14 -12 22
-12 8 0 12 -5 9 -10 -4 -6 -12 -7 -18 -3 -7 4 -7 1 1 -9 8 -9 20 -14 28 -11 8
3 14 1 14 -4 0 -18 75 -50 110 -48 22 2 39 -2 48 -13 9 -12 11 -12 6 -2 -7 13
-5 13 9 1 9 -7 17 -10 17 -6 0 5 9 0 20 -10 11 -10 20 -15 20 -10 0 4 6 2 14
-4 8 -7 24 -14 37 -16 12 -3 25 -8 28 -12 3 -5 21 -8 39 -8 18 1 41 -6 50 -15
18 -15 31 -20 68 -24 11 -2 27 -7 35 -12 8 -4 19 -9 24 -11 6 -1 24 -6 42 -11
17 -6 34 -8 37 -4 3 3 6 0 6 -7 0 -7 5 -9 10 -6 5 3 10 1 10 -5 0 -7 7 -10 15
-7 8 4 17 2 20 -4 4 -5 11 -7 16 -4 5 4 9 2 9 -4 0 -6 7 -8 15 -5 8 4 15 1 15
-4 0 -6 9 -9 20 -7 11 2 26 -3 34 -11 16 -15 30 -19 22 -5 -3 5 5 8 18 7 13 0
22 -4 19 -8 -5 -9 7 -11 50 -10 15 0 27 -4 27 -9 0 -5 -5 -9 -12 -9 -6 0 -8
-3 -5 -6 4 -4 13 -1 22 6 8 7 15 9 15 4 0 -5 5 -2 10 6 8 13 10 13 10 0 0 -11
3 -11 12 -2 7 7 17 12 22 12 6 0 4 -5 -4 -10 -9 -6 -10 -10 -3 -10 20 0 35
-37 19 -43 -10 -4 -12 0 -9 14 4 13 0 19 -11 19 -10 0 -14 -4 -11 -10 3 -5 0
-7 -8 -4 -8 3 -17 -2 -21 -12 -4 -12 -2 -15 9 -10 8 3 15 1 15 -4 0 -8 49 -4
59 5 2 2 12 0 23 -6 31 -17 59 -19 80 -8 16 9 19 8 13 -2 -6 -9 -3 -11 8 -6 9
3 19 2 22 -3 3 -5 23 -8 45 -7 22 2 40 -2 40 -8 0 -6 3 -6 8 1 9 14 36 4 41
-16 2 -8 4 -29 5 -45 1 -17 4 -35 7 -40 3 -6 4 -16 3 -22 -1 -7 -2 -22 -3 -34
0 -11 -5 -17 -11 -14 -5 3 -10 1 -10 -6 0 -7 -3 -10 -6 -7 -3 4 -20 0 -39 -7
-18 -8 -35 -11 -39 -8 -11 11 -36 12 -36 2 0 -6 -4 -7 -10 -4 -5 3 -10 -1 -10
-9 0 -13 -35 -33 -51 -28 -4 1 -5 -8 -2 -18 3 -11 11 -20 18 -20 7 0 15 -5 17
-10 6 -19 138 -37 138 -19 0 8 4 8 14 0 10 -9 16 -9 21 -1 5 8 11 8 21 -1 11
-9 15 -8 20 5 4 11 10 13 18 7 7 -5 28 -2 56 9 38 15 45 22 46 46 2 41 -7 65
-20 57 -6 -3 -8 -3 -4 1 3 4 1 27 -6 51 -8 24 -10 49 -6 55 4 7 6 25 4 40 -4
21 1 29 20 38 16 7 28 8 31 2 4 -6 11 -10 16 -10 6 0 8 4 5 9 -3 4 12 5 34 1
27 -5 40 -4 40 4 0 6 5 4 10 -4 7 -11 10 -11 10 -2 0 8 5 10 12 6 7 -4 28 -9
48 -11 19 -2 51 -6 70 -9 65 -10 100 -5 115 14 9 11 13 11 24 -2 7 -9 11 -22
8 -30 -3 -7 0 -19 6 -25 8 -8 8 -11 -2 -11 -7 0 -9 -5 -5 -12 4 -6 8 -33 10
-60 2 -42 8 -54 44 -88 42 -41 57 -50 43 -27 -4 6 5 4 20 -6 16 -10 36 -17 45
-16 26 3 53 -12 45 -25 -4 -7 -2 -7 8 1 11 9 25 10 47 3 22 -6 32 -5 32 2 0 7
4 7 13 1 6 -6 28 -9 47 -8 19 1 46 3 59 4 13 0 21 4 18 7 -3 4 -2 16 4 27 7
13 7 17 1 13 -6 -3 -13 3 -17 14 -7 22 -20 26 -30 10 -4 -7 -14 -3 -26 11 -15
18 -21 19 -33 9 -9 -6 -21 -8 -28 -4 -7 5 -22 10 -33 11 -10 2 -22 7 -25 11
-3 4 -16 9 -30 11 -14 1 -28 7 -31 13 -3 5 -9 9 -13 8 -23 -4 -38 22 -42 69
-2 29 0 50 5 47 12 -8 8 37 -4 46 -6 5 -5 8 3 8 7 0 11 4 8 8 -3 5 5 8 17 7
12 -1 26 0 32 3 8 5 42 12 73 14 6 1 12 6 12 11 0 5 6 7 14 4 8 -3 17 -3 21 1
4 4 10 7 13 8 4 0 32 4 62 8 30 5 67 10 81 11 15 1 32 5 38 9 6 4 11 1 11 -6
1 -10 4 -9 13 2 7 9 19 15 27 15 8 -1 20 2 25 5 6 4 26 7 45 9 19 1 39 6 44
11 6 6 18 10 28 10 10 0 18 4 18 8 0 13 34 11 42 -2 5 -7 8 -4 8 7 0 15 3 16
20 7 11 -6 20 -7 20 -1 0 11 39 22 98 27 23 2 50 7 60 12 9 5 23 7 30 5 6 -3
12 0 12 6 0 6 5 11 11 11 5 0 7 -6 3 -12 -5 -8 -1 -8 10 1 15 13 19 13 27 0 7
-11 9 -11 9 0 0 7 6 11 15 7 8 -3 15 -1 15 4 0 10 63 33 102 36 15 1 40 11 55
22 16 10 34 17 41 15 6 -3 12 0 12 6 0 6 9 11 20 11 11 0 20 4 20 10 0 5 3 9
8 8 8 -1 45 13 52 21 3 3 21 14 40 23 19 10 80 42 135 72 60 33 103 52 110 46
5 -4 30 -11 54 -15 51 -7 63 3 51 46 -5 16 -5 28 -2 28 4 -1 16 -1 27 0 17 1
17 3 5 11 -13 8 -12 11 4 23 15 11 16 16 6 22 -9 5 -11 4 -6 -3 4 -7 2 -12 -3
-12 -15 0 -14 30 2 30 6 0 4 5 -5 11 -10 5 -18 15 -18 20 0 6 4 8 9 5 5 -4 8
2 6 11 -1 10 2 23 6 29 6 7 4 16 -4 23 -8 6 -13 23 -11 37 2 18 -2 24 -11 20
-9 -3 -12 0 -8 9 3 8 10 12 17 8 6 -4 4 3 -4 16 -14 21 -31 29 -29 14 1 -5 5
-7 10 -6 5 2 9 -2 9 -7 0 -6 -4 -10 -10 -10 -5 0 -13 0 -17 0 -5 0 -8 6 -8 13
-1 6 -7 11 -14 9 -7 -1 -10 2 -6 8 3 6 11 8 16 5 5 -4 9 -2 9 4 0 5 3 18 6 28
6 15 4 16 -7 6 -19 -18 -24 -16 -37 12 -14 31 -15 46 -2 25 8 -12 10 -10 10 8
0 16 4 21 13 16 8 -5 8 -2 -2 9 -15 19 -26 23 -15 5 4 -7 3 -8 -5 -4 -16 10
-3 29 16 22 8 -3 11 -1 8 5 -4 5 -16 9 -28 7 -14 -2 -22 3 -22 12 -1 8 -6 14
-12 13 -6 -1 -14 4 -17 12 -3 10 0 12 12 8 14 -6 15 -4 4 9 -9 11 -10 18 -2
23 5 3 10 11 10 18 0 8 -3 8 -12 -1 -7 -7 -16 -12 -21 -12 -5 0 1 8 14 19 l23
18 -27 0 c-16 1 -24 -4 -20 -10 3 -6 1 -7 -6 -3 -16 10 -2 29 16 22 9 -4 13
-1 10 6 -2 7 -9 12 -14 11 -5 -1 -9 13 -8 30 0 25 -6 36 -30 50 -26 16 -16 16
22 0 8 -3 11 3 8 17 -8 43 -17 60 -27 54 -6 -4 -6 -10 1 -17 13 -13 15 -37 3
-37 -5 0 -17 7 -28 16 -18 14 -18 15 4 4 26 -13 31 4 5 19 -12 7 -14 10 -4 11
11 0 11 3 1 15 -7 8 -8 15 -3 15 5 0 9 9 10 21 2 17 -1 18 -13 8 -12 -10 -13
-9 -8 6 5 13 4 16 -4 11 -7 -4 -12 -2 -12 6 0 10 -3 9 -11 -2 -8 -12 -9 -10
-4 7 4 16 2 22 -7 20 -7 -2 -10 -2 -5 0 4 3 7 9 7 14 0 6 -4 8 -9 5 -5 -3 -15
2 -22 12 -13 15 -12 16 4 3 10 -8 17 -9 17 -3 0 6 -4 14 -10 17 -5 3 -10 12
-10 18 0 8 4 7 9 -2 12 -19 44 -24 37 -6 -3 8 -1 17 4 20 9 6 7 -36 -4 -53 -4
-7 1 -10 14 -7 11 2 19 1 16 -3 -2 -4 1 -18 8 -30 11 -21 14 -22 26 -7 7 8 10
18 6 22 -3 3 -6 1 -6 -5 0 -7 -5 -12 -11 -12 -5 0 -7 4 -4 10 3 6 2 10 -4 10
-5 0 -8 11 -7 25 2 13 -1 22 -5 19 -9 -5 -12 5 -12 38 0 14 -3 14 -18 5 -11
-7 -19 -16 -19 -20 0 -12 -24 14 -38 40 -11 20 -10 21 18 17 17 -3 30 -1 30 5
0 6 -8 7 -17 4 -16 -6 -17 -5 -3 12 12 15 12 17 1 10 -11 -6 -13 -4 -8 8 4 12
2 14 -11 10 -14 -6 -15 -4 -4 9 10 13 10 19 -3 32 -9 9 -21 14 -26 11 -5 -4
-9 -2 -9 4 0 5 5 12 10 14 6 3 5 4 -2 3 -7 -2 -13 -9 -13 -17 0 -8 6 -13 13
-11 8 1 11 -2 6 -9 -4 -7 -3 -9 2 -6 6 3 10 -5 10 -19 0 -13 -4 -24 -8 -24 -4
0 -8 5 -8 11 0 5 -6 7 -12 3 -9 -5 -9 -2 1 9 7 9 9 17 3 17 -16 0 -22 27 -12
62 8 28 8 31 -4 16 -16 -22 -27 -23 -20 -3 4 8 1 22 -5 29 -9 11 -9 16 0 22 7
4 9 3 5 -4 -3 -6 -2 -13 3 -17 11 -6 8 61 -2 72 -4 3 -15 0 -24 -8 -14 -11
-14 -8 2 10 20 24 20 24 0 17 -11 -4 -16 -4 -13 -1 4 4 3 18 -2 31 -6 15 -5
26 2 30 6 4 8 3 5 -2 -3 -6 -1 -16 4 -24 8 -12 9 -9 7 10 -2 17 -8 24 -20 22
-10 -2 -18 2 -18 8 0 5 4 10 9 10 8 0 8 21 1 40 -1 3 -2 8 -1 12 0 4 -6 5 -15
1 -13 -5 -13 -8 -2 -15 10 -8 10 -9 -1 -6 -17 5 -23 47 -7 44 6 -2 8 -1 3 1
-4 3 -5 9 -2 14 4 5 -2 6 -11 2 -11 -4 -15 -3 -11 4 4 6 1 14 -5 17 -7 3 -6 4
4 3 9 -1 16 3 15 8 -1 6 -8 9 -15 9 -9 -2 -10 2 -2 11 8 10 8 15 -1 21 -8 5
-10 3 -4 -7 6 -11 5 -11 -4 -3 -18 17 -21 62 -4 68 8 3 11 11 7 17 -4 7 -3 9
3 6 10 -6 193 163 193 178 0 4 12 16 26 27 14 12 23 27 20 35 -3 8 -2 12 2 9
9 -6 73 52 90 83 8 13 9 20 3 16 -6 -3 -11 1 -11 10 0 9 -4 13 -10 10 -6 -3
-7 1 -4 10 8 19 -22 55 -45 55 -20 0 -73 -34 -65 -42 5 -6 -11 -30 -43 -63 -7
-7 -9 -15 -6 -18 3 -4 -4 -4 -16 -2 -12 2 -19 0 -17 -4 6 -8 -48 -61 -61 -61
-5 0 -17 -13 -28 -29 -10 -16 -22 -28 -25 -26 -3 2 -21 -10 -39 -26 -32 -27
-35 -28 -52 -13 -10 9 -16 21 -13 25 3 5 0 9 -5 9 -6 0 -11 7 -11 16 0 9 -5
12 -12 8 -7 -4 -10 -4 -6 1 4 4 2 15 -5 23 -10 13 -9 14 3 7 13 -7 13 -6 2 7
-10 13 -10 17 0 21 10 4 9 9 -5 20 -10 9 -15 21 -11 31 5 12 2 15 -12 9 -11
-4 -15 -3 -10 5 3 6 2 13 -3 17 -7 4 -7 15 -1 30 10 25 -4 37 -14 13 -2 -7 -4
-4 -3 7 2 11 6 25 10 32 4 6 2 15 -4 19 -8 5 -9 3 -4 -7 8 -12 6 -12 -8 -1 -9
8 -16 17 -15 20 0 4 -1 9 -2 12 -7 19 -5 48 4 43 6 -4 4 2 -6 13 -9 11 -15 32
-13 51 1 20 -2 30 -9 27 -6 -2 -16 7 -22 21 -9 18 -9 25 0 28 8 3 7 9 -3 18
-12 12 -13 12 -6 0 5 -9 4 -12 -3 -7 -6 4 -9 13 -5 21 3 8 0 15 -7 15 -6 0 -9
4 -5 9 3 5 0 13 -6 16 -5 4 -8 13 -6 19 3 7 -4 18 -14 25 -11 6 -17 16 -14 21
3 5 1 11 -4 15 -6 3 -7 13 -4 22 4 11 3 14 -6 9 -14 -9 -11 16 4 26 6 4 -1 8
-15 8 -18 0 -21 3 -11 9 8 5 11 16 8 26 -4 9 -11 14 -15 11 -5 -3 -7 6 -4 20
3 17 0 24 -9 22 -9 -2 -14 5 -13 20 1 12 -3 22 -8 22 -6 0 -8 7 -5 15 4 8 2
17 -4 20 -5 4 -7 11 -4 16 4 5 1 9 -5 9 -6 0 -9 4 -6 9 3 5 -1 11 -9 15 -8 3
-15 11 -15 17 0 9 4 8 14 0 12 -10 13 -8 9 8 -3 12 -10 21 -15 21 -5 0 -6 5
-3 10 3 6 2 10 -4 10 -9 0 -24 32 -25 55 -1 6 -7 20 -13 31 -7 12 -9 24 -6 28
3 3 0 6 -7 6 -7 0 -10 3 -7 6 9 9 -12 46 -22 40 -4 -3 -6 6 -3 19 2 14 0 25
-6 25 -5 0 -9 13 -8 29 1 17 -1 28 -5 25 -4 -2 -10 3 -13 12 -4 10 -2 13 7 8
8 -5 8 -2 -2 9 -7 9 -17 15 -21 12 -4 -2 -7 6 -7 18 1 58 -4 88 -12 82 -6 -3
-8 4 -6 15 2 11 -1 20 -6 20 -6 0 -7 5 -4 10 3 6 1 10 -4 10 -6 0 -11 8 -11
18 0 10 -6 24 -12 31 -10 11 -10 13 0 7 6 -4 12 -2 12 3 0 6 -5 11 -11 11 -6
0 -9 9 -6 20 3 11 0 23 -5 27 -7 4 -8 1 -4 -8 4 -8 1 -6 -7 4 -8 9 -13 29 -11
43 2 20 0 23 -11 14 -11 -10 -13 -8 -10 9 2 12 1 21 -3 21 -4 0 -8 9 -9 21 -2
18 0 19 15 7 15 -11 15 -11 5 3 -7 9 -9 20 -5 24 4 5 2 5 -4 2 -12 -7 -31 11
-29 28 0 6 4 16 9 24 7 10 6 12 -4 6 -9 -6 -10 -1 -5 16 5 19 4 21 -4 9 -9
-13 -12 -12 -17 8 -4 12 -14 22 -23 23 -10 0 -11 2 -4 6 9 3 10 10 3 24 -6 10
-7 19 -3 19 4 0 -3 7 -15 16 -17 12 -20 19 -12 29 8 10 6 17 -9 27 -11 8 -21
20 -23 28 -2 8 -9 21 -16 29 -11 11 -11 15 0 22 10 7 9 9 -5 9 -10 0 -15 5
-12 10 6 9 -7 14 -30 11 -5 -1 1 8 15 19 20 17 21 19 4 11 -27 -13 -38 -3 -18
16 15 16 11 33 -9 33 -8 0 -8 -3 2 -9 8 -5 9 -11 3 -15 -17 -10 -22 23 -6 39
9 8 11 15 5 15 -5 0 -8 9 -6 19 2 11 -3 25 -11 32 -10 8 -14 8 -15 0z m18 -44
c0 -8 -6 -14 -14 -14 -9 0 -10 4 -2 14 6 7 12 13 14 13 1 0 2 -6 2 -13z m-437
-226 c0 -6 -4 -12 -8 -15 -5 -3 -9 1 -9 9 0 8 4 15 9 15 4 0 8 -4 8 -9z m1267
-1977 c2 -13 1 -15 -4 -4 -3 8 -11 19 -17 23 -7 6 -6 7 4 4 8 -2 16 -12 17
-23z m-2577 -168 c0 -2 -8 -10 -17 -17 -16 -13 -17 -12 -4 4 13 16 21 21 21
13z m2715 -186 c-3 -5 -12 -10 -18 -10 -7 0 -6 4 3 10 19 12 23 12 15 0z m48
-145 c-3 -9 -8 -14 -10 -11 -3 3 -2 9 2 15 9 16 15 13 8 -4z m-117 -70 c-1 -8
-6 -18 -10 -22 -4 -4 -7 -3 -6 2 1 6 2 16 1 24 -1 11 -4 11 -18 0 -16 -13 -17
-12 -5 3 15 19 41 14 38 -7z m-2841 -64 c-3 -11 -1 -22 5 -26 8 -5 8 -11 -1
-21 -13 -16 -33 -8 -22 9 4 7 8 17 9 22 0 6 2 16 2 23 1 6 5 12 8 12 3 0 3 -9
-1 -19z m29 -17 c9 -24 7 -27 -9 -10 -17 17 -19 26 -6 26 5 0 12 -7 15 -16z
m3011 -54 c3 -5 1 -10 -4 -10 -6 0 -11 5 -11 10 0 6 2 10 4 10 3 0 8 -4 11
-10z m-215 -36 c0 -9 5 -12 13 -8 9 5 9 4 0 -6 -10 -11 -9 -16 4 -25 14 -11
14 -12 0 -12 -9 0 -19 7 -22 15 -4 12 -8 12 -20 2 -13 -11 -14 -10 -9 4 5 12
2 15 -10 10 -9 -3 -13 -10 -10 -15 3 -5 -2 -6 -12 -2 -14 5 -15 3 -5 -18 11
-23 11 -23 -3 -5 -17 21 -6 46 21 46 9 0 11 5 7 13 -5 7 0 6 11 -3 17 -14 18
-13 12 3 -4 11 -2 17 8 17 8 0 15 -7 15 -16z m-2240 2 c0 -2 -7 -7 -16 -10 -8
-3 -12 -2 -9 4 6 10 25 14 25 6z m-604 -29 c2 -1 -7 -9 -19 -16 -12 -8 -19
-10 -15 -6 4 5 3 14 -3 21 -8 10 -6 12 11 9 13 -2 24 -6 26 -8z m-18 -59 c-6
-18 -13 -27 -16 -20 -2 7 -8 9 -14 6 -6 -4 -6 1 1 14 6 11 16 23 23 25 7 3 14
6 15 6 1 1 -3 -14 -9 -31z m2726 -16 c3 -5 -1 -9 -9 -9 -8 0 -12 4 -9 9 3 4 7
8 9 8 2 0 6 -4 9 -8z m-2751 -25 c7 3 8 2 4 -2 -14 -16 -36 -14 -29 3 4 10 7
12 10 4 2 -7 9 -9 15 -5z m812 -77 c3 -6 -1 -7 -9 -4 -18 7 -21 14 -7 14 6 0
13 -4 16 -10z m-230 -139 c-9 -8 -36 -10 -30 -2 2 4 11 8 20 8 8 0 13 -3 10
-6z m105 4 c0 -7 -30 -13 -34 -7 -3 4 4 9 15 9 10 1 19 0 19 -2z m2071 -12
c13 -16 12 -17 -3 -4 -17 13 -22 21 -14 21 2 0 10 -8 17 -17z m283 9 c3 -5 -1
-9 -9 -9 -8 0 -12 4 -9 9 3 4 7 8 9 8 2 0 6 -4 9 -8z m-2339 -22 c3 -5 1 -10
-4 -10 -6 0 -11 5 -11 10 0 6 2 10 4 10 3 0 8 -4 11 -10z m1160 -9 c3 -5 2
-12 -3 -15 -5 -3 -9 1 -9 9 0 17 3 19 12 6z m-1199 -16 c-1 -8 -5 -17 -8 -21
-5 -4 -4 16 1 34 3 9 9 -1 7 -13z m119 6 c3 -5 2 -12 -3 -15 -5 -3 -9 1 -9 9
0 17 3 19 12 6z m700 -29 c-3 -3 -11 0 -18 7 -9 10 -8 11 6 5 10 -3 15 -9 12
-12z m-940 -12 c3 -5 1 -10 -4 -10 -6 0 -11 5 -11 10 0 6 2 10 4 10 3 0 8 -4
11 -10z m280 -8 c-3 -3 -11 0 -18 7 -9 10 -8 11 6 5 10 -3 15 -9 12 -12z m129
10 c3 -5 -1 -9 -9 -9 -8 0 -12 4 -9 9 3 4 7 8 9 8 2 0 6 -4 9 -8z m56 -1 c0
-6 -4 -12 -8 -15 -5 -3 -9 1 -9 9 0 8 4 15 9 15 4 0 8 -4 8 -9z m-917 -38
c-17 -28 -17 -28 3 -11 19 16 20 16 20 0 0 -9 4 -28 8 -41 6 -18 5 -22 -4 -16
-9 5 -11 4 -6 -4 4 -6 12 -9 17 -6 12 8 11 -6 -1 -25 -8 -13 -11 -12 -23 4
-11 15 -16 16 -22 6 -6 -9 -4 -11 5 -5 7 5 11 4 8 -1 -3 -5 0 -15 8 -21 8 -8
15 -9 19 -3 3 6 12 10 18 10 8 0 8 -3 -1 -9 -11 -7 -10 -9 3 -14 11 -5 14 -3
9 5 -5 8 -2 9 10 5 10 -4 27 -2 39 4 20 9 20 9 5 -4 -20 -16 -23 -28 -7 -24 6
1 14 -5 16 -13 4 -13 3 -13 -6 0 -10 13 -11 13 -11 0 -1 -12 -3 -11 -11 3 -5
9 -15 17 -20 17 -6 0 -7 -6 -3 -12 5 -9 2 -9 -9 1 -9 7 -17 10 -17 5 0 -5 -5
-2 -10 6 -8 12 -10 12 -10 1 0 -8 -13 2 -29 22 -15 20 -31 34 -33 31 -3 -3 -8
2 -11 10 -4 9 1 22 9 30 8 9 15 18 15 21 -1 12 13 41 23 47 18 12 17 10 -1
-19z m1087 21 c0 -8 -19 -13 -24 -6 -3 5 1 9 9 9 8 0 15 -2 15 -3z m110 -4 c0
-5 -2 -10 -4 -10 -3 0 -8 5 -11 10 -3 6 -1 10 4 10 6 0 11 -4 11 -10z m-805
-20 c3 -5 1 -10 -4 -10 -6 0 -11 5 -11 10 0 6 2 10 4 10 3 0 8 -4 11 -10z
m221 -2 c4 -7 4 -10 -1 -6 -4 4 -15 2 -24 -5 -14 -11 -14 -10 -2 6 16 20 18
21 27 5z m119 2 c3 -5 1 -10 -4 -10 -6 0 -11 5 -11 10 0 6 2 10 4 10 3 0 8 -4
11 -10z m61 -2 c3 -4 -1 -5 -10 -4 -8 1 -18 5 -22 8 -3 4 1 5 10 4 8 -1 18 -5
22 -8z m224 2 c0 -5 -2 -10 -4 -10 -3 0 -8 5 -11 10 -3 6 -1 10 4 10 6 0 11
-4 11 -10z m-960 -56 c0 -8 5 -14 10 -14 6 0 9 -3 9 -7 -3 -21 2 -33 13 -27 7
4 8 3 4 -5 -10 -16 -39 2 -41 25 -2 11 -6 28 -10 38 -6 14 -5 17 3 12 7 -4 12
-14 12 -22z m435 16 c3 -5 1 -10 -4 -10 -6 0 -11 5 -11 10 0 6 2 10 4 10 3 0
8 -4 11 -10z m180 1 c-9 -8 -36 -10 -30 -2 2 4 11 8 20 8 8 0 13 -3 10 -6z
m260 0 c3 -5 2 -12 -3 -15 -5 -3 -9 1 -9 9 0 17 3 19 12 6z m-555 -21 c0 -5
-5 -10 -11 -10 -5 0 -7 5 -4 10 3 6 8 10 11 10 2 0 4 -4 4 -10z m240 0 c0 -5
-5 -10 -11 -10 -5 0 -7 5 -4 10 3 6 8 10 11 10 2 0 4 -4 4 -10z m236 -5 c-1
-8 -5 -17 -8 -21 -5 -4 -4 16 1 34 3 9 9 -1 7 -13z m338 7 c3 -5 -1 -9 -9 -9
-8 0 -12 4 -9 9 3 4 7 8 9 8 2 0 6 -4 9 -8z m-939 -21 c-9 -8 -36 -10 -30 -2
2 4 11 8 20 8 8 0 13 -3 10 -6z m65 5 c0 -3 -4 -8 -10 -11 -5 -3 -10 -1 -10 4
0 6 5 11 10 11 6 0 10 -2 10 -4z m180 -6 c0 -5 -2 -10 -4 -10 -3 0 -8 5 -11
10 -3 6 -1 10 4 10 6 0 11 -4 11 -10z m234 -2 c-3 -4 -11 -5 -19 -1 -21 7 -19
12 4 10 11 0 18 -5 15 -9z m86 -12 c0 -2 -7 -7 -16 -10 -8 -3 -12 -2 -9 4 6
10 25 14 25 6z m120 -6 c0 -5 -5 -10 -11 -10 -5 0 -7 5 -4 10 3 6 8 10 11 10
2 0 4 -4 4 -10z m-624 -22 c3 -4 -1 -5 -10 -4 -8 1 -18 5 -22 8 -3 4 1 5 10 4
8 -1 18 -5 22 -8z m240 0 c3 -4 -1 -5 -10 -4 -8 1 -18 5 -22 8 -3 4 1 5 10 4
8 -1 18 -5 22 -8z m300 -3 c-1 -8 -5 -17 -8 -21 -5 -4 -4 16 1 34 3 9 9 -1 7
-13z m-416 -15 c0 -5 -2 -10 -4 -10 -3 0 -8 5 -11 10 -3 6 -1 10 4 10 6 0 11
-4 11 -10z m634 -6 c3 -8 2 -12 -4 -9 -6 3 -10 10 -10 16 0 14 7 11 14 -7z
m-834 -14 c0 -5 -2 -10 -4 -10 -3 0 -8 5 -11 10 -3 6 -1 10 4 10 6 0 11 -4 11
-10z m256 -2 c3 -4 -1 -5 -10 -4 -8 1 -18 5 -22 8 -3 4 1 5 10 4 8 -1 18 -5
22 -8z m184 -3 c0 -2 -9 -3 -19 -2 -11 0 -18 5 -15 9 4 6 34 0 34 -7z m236 3
c3 -4 -1 -5 -10 -4 -8 1 -18 5 -22 8 -3 4 1 5 10 4 8 -1 18 -5 22 -8z m244 7
c0 -7 -30 -13 -34 -7 -3 4 4 9 15 9 10 1 19 0 19 -2z m-960 -29 c0 -10 -30 0
-34 11 -4 11 -1 11 14 3 11 -6 20 -12 20 -14z m-42 -11 c-3 -3 -9 2 -12 12 -6
14 -5 15 5 6 7 -7 10 -15 7 -18z m615 10 c4 -8 3 -16 -1 -19 -4 -3 -9 4 -9 15
-2 23 3 25 10 4z m904 0 c0 -8 -4 -12 -9 -9 -5 3 -6 10 -3 15 9 13 12 11 12
-6z m-1403 -13 c2 -4 -5 -9 -17 -9 -17 -2 -19 0 -7 7 18 12 18 12 24 2z m422
-4 c3 -4 -1 -5 -10 -4 -8 1 -18 5 -22 8 -3 4 1 5 10 4 8 -1 18 -5 22 -8z m124
8 c0 -3 -4 -8 -10 -11 -5 -3 -10 -1 -10 4 0 6 5 11 10 11 6 0 10 -2 10 -4z
m-630 -10 c0 -2 -7 -7 -16 -10 -8 -3 -12 -2 -9 4 6 10 25 14 25 6z m180 -10
c0 -2 -8 -10 -17 -17 -16 -13 -17 -12 -4 4 13 16 21 21 21 13z m54 -4 c3 -5
-1 -9 -9 -9 -8 0 -12 4 -9 9 3 4 7 8 9 8 2 0 6 -4 9 -8z m549 -7 c4 -8 3 -16
-1 -19 -4 -3 -9 4 -9 15 -2 23 3 25 10 4z m211 7 c3 -5 -1 -9 -9 -9 -8 0 -12
4 -9 9 3 4 7 8 9 8 2 0 6 -4 9 -8z m-564 -22 c0 -5 -2 -10 -4 -10 -3 0 -8 5
-11 10 -3 6 -1 10 4 10 6 0 11 -4 11 -10z m37 -5 c0 -8 -4 -12 -9 -9 -5 3 -6
10 -3 15 9 13 12 11 12 -6z m398 6 c-9 -8 -36 -10 -30 -2 2 4 11 8 20 8 8 0
13 -3 10 -6z m-745 -17 c0 -8 -19 -13 -24 -6 -3 5 1 9 9 9 8 0 15 -2 15 -3z
m745 -23 c-9 -8 -36 -10 -30 -2 2 4 11 8 20 8 8 0 13 -3 10 -6z m-670 -21 c-3
-5 -12 -10 -18 -10 -7 0 -6 4 3 10 19 12 23 12 15 0z m32 -9 c0 -11 -5 -18 -9
-15 -4 3 -5 11 -1 19 7 21 12 19 10 -4z m146 9 c-2 -3 -18 -5 -35 -6 -18 -1
-25 1 -18 6 13 8 62 8 53 0z m692 -9 c3 -5 2 -12 -3 -15 -5 -3 -9 1 -9 9 0 17
3 19 12 6z m2035 -8 c0 5 5 5 10 2 8 -5 7 -11 -1 -21 -6 -8 -8 -14 -4 -14 4 0
2 -7 -5 -15 -10 -12 -10 -18 0 -30 7 -8 11 -15 9 -16 -34 -7 -37 -6 -34 12 2
11 7 24 10 29 7 12 -7 13 -21 3 -5 -5 -1 -1 8 9 20 18 24 38 7 38 -5 0 -7 5
-3 11 4 8 9 7 15 -2 5 -8 9 -10 9 -6z m-2830 3 c0 -2 -7 -7 -16 -10 -8 -3 -12
-2 -9 4 6 10 25 14 25 6z m197 -18 c2 -17 0 -19 -7 -8 -5 8 -6 18 -4 22 8 12
10 10 11 -14z m337 10 c-3 -4 -11 -5 -19 -1 -21 7 -19 12 4 10 11 0 18 -5 15
-9z m141 3 c3 -5 2 -12 -3 -15 -5 -3 -9 1 -9 9 0 17 3 19 12 6z m-668 -26 c0
-8 -4 -12 -9 -9 -5 3 -6 10 -3 15 9 13 12 11 12 -6z m550 -10 c0 -8 -4 -12 -9
-9 -5 3 -6 10 -3 15 9 13 12 11 12 -6z m-477 -5 c0 -5 -2 -10 -4 -10 -3 0 -8
5 -11 10 -3 6 -1 10 4 10 6 0 11 -4 11 -10z m164 2 c3 -5 -1 -9 -9 -9 -8 0
-12 4 -9 9 3 4 7 8 9 8 2 0 6 -4 9 -8z m46 2 c0 -8 -19 -13 -24 -6 -3 5 1 9 9
9 8 0 15 -2 15 -3z m185 -4 c3 -5 1 -10 -4 -10 -6 0 -11 5 -11 10 0 6 2 10 4
10 3 0 8 -4 11 -10z m45 0 c0 -5 -5 -10 -11 -10 -5 0 -7 5 -4 10 3 6 8 10 11
10 2 0 4 -4 4 -10z m-105 -28 c-3 -3 -11 0 -18 7 -9 10 -8 11 6 5 10 -3 15 -9
12 -12z m-38 -7 c0 -8 -4 -12 -9 -9 -5 3 -6 10 -3 15 9 13 12 11 12 -6z m-137
-558 c16 4 20 1 18 -20 -1 -16 -7 -23 -15 -20 -7 3 -13 9 -13 15 0 5 5 6 12 2
7 -4 8 -3 4 4 -4 6 -13 9 -21 6 -8 -4 -12 -10 -9 -15 3 -5 1 -9 -4 -9 -12 0
-20 30 -14 49 4 11 6 11 13 -2 6 -9 17 -13 29 -10z m-65 5 c-3 -3 0 -11 7 -19
8 -11 7 -12 -5 -7 -21 7 -29 31 -11 31 8 0 12 -3 9 -5z m125 -22 c0 -5 -7 -10
-16 -10 -8 0 -12 5 -9 10 3 6 10 10 16 10 5 0 9 -4 9 -10z m55 -2 c5 4 5 1 1
-6 -6 -10 -11 -10 -22 -1 -8 6 -14 14 -14 16 0 3 6 0 13 -6 8 -6 18 -7 22 -3z"/>
<path d="M1140 1670 c0 -5 9 -8 20 -7 21 1 18 10 -5 13 -8 1 -15 -2 -15 -6z"/>
<path d="M2110 4520 c-8 -5 -12 -12 -9 -15 4 -3 12 1 19 10 14 17 11 19 -10 5z"/>
<path d="M3800 3285 c5 -7 6 -16 2 -21 -4 -5 -3 -5 2 -1 15 12 15 34 0 34 -9
0 -11 -4 -4 -12z"/>
<path d="M3830 3166 c0 -2 7 -7 16 -10 8 -3 12 -2 9 4 -6 10 -25 14 -25 6z"/>
<path d="M4180 2194 c0 -6 6 -17 13 -23 11 -8 18 -6 33 11 12 13 13 18 4 12
-20 -12 -34 -12 -42 1 -5 7 -8 6 -8 -1z"/>
<path d="M4230 2076 c0 -8 7 -16 15 -20 13 -4 14 -2 5 14 -13 23 -20 26 -20 6z"/>
<path d="M4279 2033 c0 -5 -2 -18 -5 -31 -2 -14 0 -21 6 -17 12 7 41 -55 33
-69 -4 -5 -1 -6 5 -2 7 4 12 2 12 -3 0 -6 3 -10 8 -10 27 5 34 -1 21 -18 -12
-14 -12 -16 0 -8 10 6 12 4 6 -5 -6 -9 -4 -11 5 -5 9 6 11 4 5 -5 -6 -9 -4
-11 5 -5 9 5 11 4 6 -3 -5 -8 -2 -10 9 -6 13 5 13 9 -5 24 -11 9 -17 20 -14
23 3 3 -8 13 -25 22 -17 8 -31 18 -31 21 0 2 9 0 21 -6 11 -7 23 -9 27 -6 3 3
1 6 -4 6 -6 0 -19 7 -30 16 -10 8 -14 13 -7 10 6 -4 15 -1 19 5 4 8 3 9 -4 5
-11 -6 -16 6 -13 27 0 4 -4 7 -10 7 -6 0 -8 -9 -3 -22 7 -26 5 -24 -19 14 -14
23 -15 26 -2 22 11 -5 13 -2 9 10 -6 16 -23 22 -25 9z"/>
<path d="M4314 1870 c1 -16 11 -39 23 -52 12 -13 22 -26 22 -30 1 -5 3 -8 6
-8 3 0 10 0 16 0 8 0 8 4 0 14 -6 7 -9 20 -6 28 3 8 -3 22 -14 32 -11 10 -18
23 -15 30 2 6 -4 12 -14 13 -15 1 -19 -5 -18 -27z m44 -38 c-4 -2 -5 -9 -1
-15 3 -7 -2 -4 -13 5 -11 9 -20 26 -21 37 -2 20 -1 20 21 -2 13 -12 19 -24 14
-25z"/>
<path d="M965 1850 c3 -5 1 -10 -4 -10 -6 0 -11 -5 -11 -11 0 -8 5 -8 15 1 17
14 20 30 4 30 -5 0 -7 -4 -4 -10z"/>
<path d="M4386 1824 c-4 -9 -1 -22 5 -30 8 -10 3 -17 -21 -29 -26 -13 -29 -19
-19 -31 6 -8 8 -14 4 -14 -4 0 -2 -6 4 -13 6 -8 8 -18 4 -23 -4 -5 -1 -4 6 3
10 9 20 9 33 2 13 -7 23 -7 33 1 10 8 14 8 17 -2 3 -8 6 -7 11 4 4 13 1 16
-14 13 -10 -2 -19 0 -19 6 0 5 6 9 13 9 7 0 13 9 13 20 0 20 -1 20 -17 -1 -11
-14 -18 -18 -23 -10 -4 6 -3 11 3 11 5 0 8 15 7 33 -5 58 -27 86 -40 51z m29
-40 c0 -16 -8 -36 -19 -45 -14 -12 -16 -18 -6 -24 9 -5 11 -4 6 3 -4 7 -3 12
1 12 5 0 14 -9 21 -20 11 -18 10 -19 -16 -9 -15 6 -28 10 -29 10 -2 -1 -3 2
-4 7 0 4 -6 13 -12 21 -8 10 -8 13 -1 8 6 -3 21 4 33 17 15 15 19 26 12 31
-15 9 -14 28 2 22 6 -2 12 -17 12 -33z"/>
<path d="M4379 1743 c-13 -17 -13 -17 6 -3 11 8 22 16 24 17 2 2 0 3 -6 3 -6
0 -17 -8 -24 -17z"/>
<path d="M4466 1673 c-6 -14 -5 -15 5 -6 7 7 10 15 7 18 -3 3 -9 -2 -12 -12z"/>
<path d="M4400 1600 c-11 -7 -12 -12 -4 -20 8 -8 13 -6 17 9 3 12 4 21 4 21
-1 0 -9 -5 -17 -10z"/>
<path d="M700 1149 c0 -5 5 -7 10 -4 6 3 10 8 10 11 0 2 -4 4 -10 4 -5 0 -10
-5 -10 -11z"/>
<path d="M1796 722 c-3 -5 1 -9 9 -9 8 0 12 4 9 9 -3 4 -7 8 -9 8 -2 0 -6 -4
-9 -8z"/>
</g>
</svg>
